<?xml version="1.0" encoding="utf-8" standalone="no"?>
<!DOCTYPE svg PUBLIC "-//W3C//DTD SVG 1.1//EN"
  "http://www.w3.org/Graphics/SVG/1.1/DTD/svg11.dtd">
<svg xmlns:xlink="http://www.w3.org/1999/xlink" width="684pt" height="308.232pt" viewBox="0 0 684 308.232" xmlns="http://www.w3.org/2000/svg" version="1.1">
 <metadata>
  <rdf:RDF xmlns:dc="http://purl.org/dc/elements/1.1/" xmlns:cc="http://creativecommons.org/ns#" xmlns:rdf="http://www.w3.org/1999/02/22-rdf-syntax-ns#">
   <cc:Work>
    <dc:type rdf:resource="http://purl.org/dc/dcmitype/StillImage"/>
    <dc:date>2026-09-27T18:27:22.926158</dc:date>
    <dc:format>image/svg+xml</dc:format>
    <dc:creator>
     <cc:Agent>
      <dc:title>Matplotlib v3.7.5, https://matplotlib.org/</dc:title>
     </cc:Agent>
    </dc:creator>
   </cc:Work>
  </rdf:RDF>
 </metadata>
 <defs>
  <style type="text/css">*{stroke-linejoin: round; stroke-linecap: butt}</style>
 </defs>
 <g id="figure_1">
  <g id="patch_1">
   <path d="M 0 308.232 
L 684 308.232 
L 684 0 
L 0 0 
z
" style="fill: #ffffff"/>
  </g>
  <g id="axes_1">
   <g id="patch_2">
    <path d="M 29.9664 178.210224 
L 192.0096 178.210224 
Q 202.7232 178.210224 202.7232 173.508912 
L 202.7232 81.833328 
Q 202.7232 77.132016 192.0096 77.132016 
L 29.9664 77.132016 
Q 19.2528 77.132016 19.2528 81.833328 
L 19.2528 173.508912 
Q 19.2528 178.210224 29.9664 178.210224 
z
" clip-path="url(#p87bebb8193)" style="fill: #eef4f7; stroke: #2875a8; stroke-width: 1.4; stroke-linejoin: miter"/>
   </g>
   <g id="patch_3">
    <path d="M 264.3264 178.210224 
L 426.3696 178.210224 
Q 437.0832 178.210224 437.0832 173.508912 
L 437.0832 81.833328 
Q 437.0832 77.132016 426.3696 77.132016 
L 264.3264 77.132016 
Q 253.6128 77.132016 253.6128 81.833328 
L 253.6128 173.508912 
Q 253.6128 178.210224 264.3264 178.210224 
z
" clip-path="url(#p87bebb8193)" style="fill: #eef4f7; stroke: #16817a; stroke-width: 1.4; stroke-linejoin: miter"/>
   </g>
   <g id="patch_4">
    <path d="M 498.6864 178.210224 
L 654.0336 178.210224 
Q 664.7472 178.210224 664.7472 173.508912 
L 664.7472 81.833328 
Q 664.7472 77.132016 654.0336 77.132016 
L 498.6864 77.132016 
Q 487.9728 77.132016 487.9728 81.833328 
L 487.9728 173.508912 
Q 487.9728 178.210224 498.6864 178.210224 
z
" clip-path="url(#p87bebb8193)" style="fill: #eef4f7; stroke: #d48325; stroke-width: 1.4; stroke-linejoin: miter"/>
   </g>
   <g id="patch_5">
    <path d="M 196.686501 127.67112 
Q 228.166104 127.67112 258.136362 127.67112 
" clip-path="url(#p87bebb8193)" style="fill: none; stroke: #607080; stroke-width: 1.35; stroke-linecap: round"/>
    <path d="M 252.936362 125.07112 
L 258.136362 127.67112 
L 252.936362 130.27112 
z
" clip-path="url(#p87bebb8193)" style="fill: #607080; stroke: #607080; stroke-width: 1.35; stroke-linecap: round"/>
   </g>
   <g id="patch_6">
    <path d="M 431.046501 127.67112 
Q 462.526104 127.67112 492.496362 127.67112 
" clip-path="url(#p87bebb8193)" style="fill: none; stroke: #607080; stroke-width: 1.35; stroke-linecap: round"/>
    <path d="M 487.296362 125.07112 
L 492.496362 127.67112 
L 487.296362 130.27112 
z
" clip-path="url(#p87bebb8193)" style="fill: #607080; stroke: #607080; stroke-width: 1.35; stroke-linecap: round"/>
   </g>
   <g id="text_1">
    <text style="fill: #17324d; font: 700 17px 'DejaVu Sans'; text-anchor: start" x="20.592" y="28.932304" transform="rotate(-0 20.592 28.932304)">Source to transport to full-session run</text>
   </g>
   <g id="text_2">
    <text style="fill: #17324d; font: 700 10px 'DejaVu Sans'; text-anchor: middle" x="110.988" y="114.446034" transform="rotate(-0 110.988 114.446034)">Research source</text>
   </g>
   <g id="text_3">
    <text style="fill: #607080; font: 8.3px 'DejaVu Sans'" transform="translate(63.16768 142.86396)">3840×2160 · 2.390 GB</text>
    <text style="fill: #607080; font: 8.3px 'DejaVu Sans'" transform="translate(80.680031 152.788814)">20,391 frames</text>
   </g>
   <g id="text_4">
    <text style="fill: #17324d; font: 700 10px 'DejaVu Sans'; text-anchor: middle" x="345.348" y="114.367909" transform="rotate(-0 345.348 114.367909)">Transport copy</text>
   </g>
   <g id="text_5">
    <text style="fill: #607080; font: 8.3px 'DejaVu Sans'" transform="translate(299.803047 142.86396)">1920×1080 · 44.0 MB</text>
    <text style="fill: #607080; font: 8.3px 'DejaVu Sans'" transform="translate(315.040031 152.788814)">20,391 frames</text>
   </g>
   <g id="text_6">
    <text style="fill: #17324d; font: 700 10px 'DejaVu Sans'; text-anchor: middle" x="576.36" y="114.446034" transform="rotate(-0 576.36 114.446034)">Product E2E</text>
   </g>
   <g id="text_7">
    <text style="fill: #607080; font: 8.3px 'DejaVu Sans'" transform="translate(554.78 142.86396)">M2 · 340 s</text>
    <text style="fill: #607080; font: 8.3px 'DejaVu Sans'" transform="translate(521.116367 152.788814)">completed with limitations</text>
   </g>
   <g id="text_8">
    <text style="fill: #b94d4d; font: 700 10px 'DejaVu Sans'; text-anchor: middle" x="342" y="248.14224" transform="rotate(-0 342 248.14224)">Different SHA-256 → explicit derived-input provenance; research calibration denied</text>
   </g>
  </g>
 </g>
 <defs>
  <clipPath id="p87bebb8193">
   <rect x="7.2" y="7.2" width="669.6" height="293.832"/>
  </clipPath>
 </defs>
</svg>
