<?xml version="1.0" encoding="utf-8" standalone="no"?>
<!DOCTYPE svg PUBLIC "-//W3C//DTD SVG 1.1//EN"
  "http://www.w3.org/Graphics/SVG/1.1/DTD/svg11.dtd">
<svg xmlns:xlink="http://www.w3.org/1999/xlink" width="704.276562pt" height="371.738935pt" viewBox="0 0 704.276562 371.738935" xmlns="http://www.w3.org/2000/svg" version="1.1">
 <metadata>
  <rdf:RDF xmlns:dc="http://purl.org/dc/elements/1.1/" xmlns:cc="http://creativecommons.org/ns#" xmlns:rdf="http://www.w3.org/1999/02/22-rdf-syntax-ns#">
   <cc:Work>
    <dc:type rdf:resource="http://purl.org/dc/dcmitype/StillImage"/>
    <dc:date>2026-09-27T18:48:18.234382</dc:date>
    <dc:format>image/svg+xml</dc:format>
    <dc:creator>
     <cc:Agent>
      <dc:title>Matplotlib v3.7.5, https://matplotlib.org/</dc:title>
     </cc:Agent>
    </dc:creator>
   </cc:Work>
  </rdf:RDF>
 </metadata>
 <defs>
  <style type="text/css">*{stroke-linejoin: round; stroke-linecap: butt}</style>
 </defs>
 <g id="figure_1">
  <g id="patch_1">
   <path d="M 0 371.738935 
L 704.276562 371.738935 
L 704.276562 0 
L 0 0 
z
" style="fill: #ffffff"/>
  </g>
  <g id="axes_1">
   <g id="patch_2">
    <path d="M 135.895312 282.886125 
L 693.895313 282.886125 
L 693.895313 22.318125 
L 135.895312 22.318125 
z
" style="fill: #ffffff"/>
   </g>
   <g id="patch_3">
    <path d="M 135.895312 34.162125 
L 135.895312 34.162125 
L 135.895312 68.580587 
L 135.895312 68.580587 
z
" clip-path="url(#p66cc56c38a)" style="fill: #b94d4d"/>
   </g>
   <g id="patch_4">
    <path d="M 135.895312 84.77751 
L 135.895312 84.77751 
L 135.895312 119.195971 
L 135.895312 119.195971 
z
" clip-path="url(#p66cc56c38a)" style="fill: #b94d4d"/>
   </g>
   <g id="patch_5">
    <path d="M 135.895312 135.392894 
L 135.895312 135.392894 
L 135.895312 169.811356 
L 135.895312 169.811356 
z
" clip-path="url(#p66cc56c38a)" style="fill: #b94d4d"/>
   </g>
   <g id="patch_6">
    <path d="M 135.895312 186.008279 
L 135.895312 186.008279 
L 135.895312 220.42674 
L 135.895312 220.42674 
z
" clip-path="url(#p66cc56c38a)" style="fill: #b94d4d"/>
   </g>
   <g id="patch_7">
    <path d="M 135.895312 236.623663 
L 135.895312 236.623663 
L 135.895312 271.042125 
L 135.895312 271.042125 
z
" clip-path="url(#p66cc56c38a)" style="fill: #b94d4d"/>
   </g>
   <g id="patch_8">
    <path d="M 135.895312 34.162125 
L 135.895312 34.162125 
L 135.895312 68.580587 
L 135.895312 68.580587 
z
" clip-path="url(#p66cc56c38a)" style="fill: #d98b53"/>
   </g>
   <g id="patch_9">
    <path d="M 135.895312 84.77751 
L 135.895312 84.77751 
L 135.895312 119.195971 
L 135.895312 119.195971 
z
" clip-path="url(#p66cc56c38a)" style="fill: #d98b53"/>
   </g>
   <g id="patch_10">
    <path d="M 135.895312 135.392894 
L 135.895312 135.392894 
L 135.895312 169.811356 
L 135.895312 169.811356 
z
" clip-path="url(#p66cc56c38a)" style="fill: #d98b53"/>
   </g>
   <g id="patch_11">
    <path d="M 135.895312 186.008279 
L 135.895312 186.008279 
L 135.895312 220.42674 
L 135.895312 220.42674 
z
" clip-path="url(#p66cc56c38a)" style="fill: #d98b53"/>
   </g>
   <g id="patch_12">
    <path d="M 135.895312 236.623663 
L 135.895312 236.623663 
L 135.895312 271.042125 
L 135.895312 271.042125 
z
" clip-path="url(#p66cc56c38a)" style="fill: #d98b53"/>
   </g>
   <g id="patch_13">
    <path d="M 135.895312 34.162125 
L 135.895312 34.162125 
L 135.895312 68.580587 
L 135.895312 68.580587 
z
" clip-path="url(#p66cc56c38a)" style="fill: #c4cbd0"/>
   </g>
   <g id="patch_14">
    <path d="M 135.895312 84.77751 
L 228.895312 84.77751 
L 228.895312 119.195971 
L 135.895312 119.195971 
z
" clip-path="url(#p66cc56c38a)" style="fill: #c4cbd0"/>
   </g>
   <g id="patch_15">
    <path d="M 135.895312 135.392894 
L 135.895312 135.392894 
L 135.895312 169.811356 
L 135.895312 169.811356 
z
" clip-path="url(#p66cc56c38a)" style="fill: #c4cbd0"/>
   </g>
   <g id="patch_16">
    <path d="M 135.895312 186.008279 
L 321.895312 186.008279 
L 321.895312 220.42674 
L 135.895312 220.42674 
z
" clip-path="url(#p66cc56c38a)" style="fill: #c4cbd0"/>
   </g>
   <g id="patch_17">
    <path d="M 135.895312 236.623663 
L 135.895312 236.623663 
L 135.895312 271.042125 
L 135.895312 271.042125 
z
" clip-path="url(#p66cc56c38a)" style="fill: #c4cbd0"/>
   </g>
   <g id="patch_18">
    <path d="M 135.895312 34.162125 
L 228.895312 34.162125 
L 228.895312 68.580587 
L 135.895312 68.580587 
z
" clip-path="url(#p66cc56c38a)" style="fill: #65a79e"/>
   </g>
   <g id="patch_19">
    <path d="M 228.895312 84.77751 
L 414.895312 84.77751 
L 414.895312 119.195971 
L 228.895312 119.195971 
z
" clip-path="url(#p66cc56c38a)" style="fill: #65a79e"/>
   </g>
   <g id="patch_20">
    <path d="M 135.895312 135.392894 
L 228.895312 135.392894 
L 228.895312 169.811356 
L 135.895312 169.811356 
z
" clip-path="url(#p66cc56c38a)" style="fill: #65a79e"/>
   </g>
   <g id="patch_21">
    <path d="M 321.895312 186.008279 
L 600.895313 186.008279 
L 600.895313 220.42674 
L 321.895312 220.42674 
z
" clip-path="url(#p66cc56c38a)" style="fill: #65a79e"/>
   </g>
   <g id="patch_22">
    <path d="M 135.895312 236.623663 
L 135.895312 236.623663 
L 135.895312 271.042125 
L 135.895312 271.042125 
z
" clip-path="url(#p66cc56c38a)" style="fill: #65a79e"/>
   </g>
   <g id="patch_23">
    <path d="M 228.895312 34.162125 
L 693.895313 34.162125 
L 693.895313 68.580587 
L 228.895312 68.580587 
z
" clip-path="url(#p66cc56c38a)" style="fill: #16817a"/>
   </g>
   <g id="patch_24">
    <path d="M 414.895312 84.77751 
L 693.895313 84.77751 
L 693.895313 119.195971 
L 414.895312 119.195971 
z
" clip-path="url(#p66cc56c38a)" style="fill: #16817a"/>
   </g>
   <g id="patch_25">
    <path d="M 228.895312 135.392894 
L 693.895313 135.392894 
L 693.895313 169.811356 
L 228.895312 169.811356 
z
" clip-path="url(#p66cc56c38a)" style="fill: #16817a"/>
   </g>
   <g id="patch_26">
    <path d="M 600.895313 186.008279 
L 693.895313 186.008279 
L 693.895313 220.42674 
L 600.895313 220.42674 
z
" clip-path="url(#p66cc56c38a)" style="fill: #16817a"/>
   </g>
   <g id="patch_27">
    <path d="M 135.895312 236.623663 
L 693.895313 236.623663 
L 693.895313 271.042125 
L 135.895312 271.042125 
z
" clip-path="url(#p66cc56c38a)" style="fill: #16817a"/>
   </g>
   <g id="matplotlib.axis_1">
    <g id="xtick_1">
     <g id="line2d_1">
      <defs>
       <path id="m66437e85c8" d="M 0 0 
L 0 3.5 
" style="stroke: #000000; stroke-width: 0.8"/>
      </defs>
      <g>
       <use xlink:href="#m66437e85c8" x="135.895312" y="282.886125" style="stroke: #000000; stroke-width: 0.8"/>
      </g>
     </g>
     <g id="text_1">
      <text style="font: 10px 'DejaVu Sans'; text-anchor: middle" x="135.895312" y="297.484562" transform="rotate(-0 135.895312 297.484562)">0</text>
     </g>
    </g>
    <g id="xtick_2">
     <g id="line2d_2">
      <g>
       <use xlink:href="#m66437e85c8" x="228.895312" y="282.886125" style="stroke: #000000; stroke-width: 0.8"/>
      </g>
     </g>
     <g id="text_2">
      <text style="font: 10px 'DejaVu Sans'; text-anchor: middle" x="228.895312" y="297.484562" transform="rotate(-0 228.895312 297.484562)">1</text>
     </g>
    </g>
    <g id="xtick_3">
     <g id="line2d_3">
      <g>
       <use xlink:href="#m66437e85c8" x="321.895312" y="282.886125" style="stroke: #000000; stroke-width: 0.8"/>
      </g>
     </g>
     <g id="text_3">
      <text style="font: 10px 'DejaVu Sans'; text-anchor: middle" x="321.895312" y="297.484562" transform="rotate(-0 321.895312 297.484562)">2</text>
     </g>
    </g>
    <g id="xtick_4">
     <g id="line2d_4">
      <g>
       <use xlink:href="#m66437e85c8" x="414.895312" y="282.886125" style="stroke: #000000; stroke-width: 0.8"/>
      </g>
     </g>
     <g id="text_4">
      <text style="font: 10px 'DejaVu Sans'; text-anchor: middle" x="414.895312" y="297.484562" transform="rotate(-0 414.895312 297.484562)">3</text>
     </g>
    </g>
    <g id="xtick_5">
     <g id="line2d_5">
      <g>
       <use xlink:href="#m66437e85c8" x="507.895312" y="282.886125" style="stroke: #000000; stroke-width: 0.8"/>
      </g>
     </g>
     <g id="text_5">
      <text style="font: 10px 'DejaVu Sans'; text-anchor: middle" x="507.895312" y="297.484562" transform="rotate(-0 507.895312 297.484562)">4</text>
     </g>
    </g>
    <g id="xtick_6">
     <g id="line2d_6">
      <g>
       <use xlink:href="#m66437e85c8" x="600.895313" y="282.886125" style="stroke: #000000; stroke-width: 0.8"/>
      </g>
     </g>
     <g id="text_6">
      <text style="font: 10px 'DejaVu Sans'; text-anchor: middle" x="600.895313" y="297.484562" transform="rotate(-0 600.895313 297.484562)">5</text>
     </g>
    </g>
    <g id="xtick_7">
     <g id="line2d_7">
      <g>
       <use xlink:href="#m66437e85c8" x="693.895313" y="282.886125" style="stroke: #000000; stroke-width: 0.8"/>
      </g>
     </g>
     <g id="text_7">
      <text style="font: 10px 'DejaVu Sans'; text-anchor: middle" x="693.895313" y="297.484562" transform="rotate(-0 693.895313 297.484562)">6</text>
     </g>
    </g>
    <g id="text_8">
     <text style="font: 10px 'DejaVu Sans'; text-anchor: middle" x="414.895312" y="311.162687" transform="rotate(-0 414.895312 311.162687)">Respondents (n=6)</text>
    </g>
   </g>
   <g id="matplotlib.axis_2">
    <g id="ytick_1">
     <g id="line2d_8">
      <defs>
       <path id="mc67acf2f85" d="M 0 0 
L -3.5 0 
" style="stroke: #000000; stroke-width: 0.8"/>
      </defs>
      <g>
       <use xlink:href="#mc67acf2f85" x="135.895312" y="51.371356" style="stroke: #000000; stroke-width: 0.8"/>
      </g>
     </g>
     <g id="text_9">
      <text style="font: 10px 'DejaVu Sans'; text-anchor: end" x="128.895312" y="55.170575" transform="rotate(-0 128.895312 55.170575)">Overall usefulness</text>
     </g>
    </g>
    <g id="ytick_2">
     <g id="line2d_9">
      <g>
       <use xlink:href="#mc67acf2f85" x="135.895312" y="101.98674" style="stroke: #000000; stroke-width: 0.8"/>
      </g>
     </g>
     <g id="text_10">
      <text style="font: 10px 'DejaVu Sans'; text-anchor: end" x="128.895312" y="105.785959" transform="rotate(-0 128.895312 105.785959)">Report useful</text>
     </g>
    </g>
    <g id="ytick_3">
     <g id="line2d_10">
      <g>
       <use xlink:href="#mc67acf2f85" x="135.895312" y="152.602125" style="stroke: #000000; stroke-width: 0.8"/>
      </g>
     </g>
     <g id="text_11">
      <text style="font: 10px 'DejaVu Sans'; text-anchor: end" x="128.895312" y="156.401344" transform="rotate(-0 128.895312 156.401344)">Limitations clear</text>
     </g>
    </g>
    <g id="ytick_4">
     <g id="line2d_11">
      <g>
       <use xlink:href="#mc67acf2f85" x="135.895312" y="203.21751" style="stroke: #000000; stroke-width: 0.8"/>
      </g>
     </g>
     <g id="text_12">
      <text style="font: 10px 'DejaVu Sans'; text-anchor: end" x="128.895312" y="207.016728" transform="rotate(-0 128.895312 207.016728)">Withholding explanation</text>
     </g>
    </g>
    <g id="ytick_5">
     <g id="line2d_12">
      <g>
       <use xlink:href="#mc67acf2f85" x="135.895312" y="253.832894" style="stroke: #000000; stroke-width: 0.8"/>
      </g>
     </g>
     <g id="text_13">
      <text style="font: 10px 'DejaVu Sans'; text-anchor: end" x="128.895312" y="257.632113" transform="rotate(-0 128.895312 257.632113)">Real-training potential</text>
     </g>
    </g>
   </g>
   <g id="patch_28">
    <path d="M 135.895312 282.886125 
L 135.895312 22.318125 
" style="fill: none; stroke: #000000; stroke-width: 0.8; stroke-linejoin: miter; stroke-linecap: square"/>
   </g>
   <g id="patch_29">
    <path d="M 135.895312 282.886125 
L 693.895313 282.886125 
" style="fill: none; stroke: #000000; stroke-width: 0.8; stroke-linejoin: miter; stroke-linecap: square"/>
   </g>
   <g id="text_14">
    <text style="fill: #17324d; font: 700 9px 'DejaVu Sans'; text-anchor: middle" x="182.395312" y="104.470178" transform="rotate(-0 182.395312 104.470178)">1</text>
   </g>
   <g id="text_15">
    <text style="fill: #17324d; font: 700 9px 'DejaVu Sans'; text-anchor: middle" x="228.895312" y="205.700947" transform="rotate(-0 228.895312 205.700947)">2</text>
   </g>
   <g id="text_16">
    <text style="fill: #17324d; font: 700 9px 'DejaVu Sans'; text-anchor: middle" x="182.395312" y="53.854793" transform="rotate(-0 182.395312 53.854793)">1</text>
   </g>
   <g id="text_17">
    <text style="fill: #17324d; font: 700 9px 'DejaVu Sans'; text-anchor: middle" x="321.895312" y="104.470178" transform="rotate(-0 321.895312 104.470178)">2</text>
   </g>
   <g id="text_18">
    <text style="fill: #17324d; font: 700 9px 'DejaVu Sans'; text-anchor: middle" x="182.395312" y="155.085562" transform="rotate(-0 182.395312 155.085562)">1</text>
   </g>
   <g id="text_19">
    <text style="fill: #17324d; font: 700 9px 'DejaVu Sans'; text-anchor: middle" x="461.395312" y="205.700947" transform="rotate(-0 461.395312 205.700947)">3</text>
   </g>
   <g id="text_20">
    <text style="fill: #ffffff; font: 700 9px 'DejaVu Sans'; text-anchor: middle" x="461.395312" y="53.854793" transform="rotate(-0 461.395312 53.854793)">5</text>
   </g>
   <g id="text_21">
    <text style="fill: #ffffff; font: 700 9px 'DejaVu Sans'; text-anchor: middle" x="554.395313" y="104.470178" transform="rotate(-0 554.395313 104.470178)">3</text>
   </g>
   <g id="text_22">
    <text style="fill: #ffffff; font: 700 9px 'DejaVu Sans'; text-anchor: middle" x="461.395312" y="155.085562" transform="rotate(-0 461.395312 155.085562)">5</text>
   </g>
   <g id="text_23">
    <text style="fill: #ffffff; font: 700 9px 'DejaVu Sans'; text-anchor: middle" x="647.395313" y="205.700947" transform="rotate(-0 647.395313 205.700947)">1</text>
   </g>
   <g id="text_24">
    <text style="fill: #ffffff; font: 700 9px 'DejaVu Sans'; text-anchor: middle" x="414.895312" y="256.316332" transform="rotate(-0 414.895312 256.316332)">6</text>
   </g>
   <g id="text_25">
    <text style="font: 12px 'DejaVu Sans'; text-anchor: middle" x="414.895312" y="16.318125" transform="rotate(-0 414.895312 16.318125)">Selected coach-study response distributions</text>
   </g>
   <g id="legend_1">
    <g id="patch_30">
     <path d="M 286.989062 364.538935 
L 542.801563 364.538935 
Q 544.801563 364.538935 544.801563 362.538935 
L 544.801563 334.182685 
Q 544.801563 332.182685 542.801563 332.182685 
L 286.989062 332.182685 
Q 284.989062 332.182685 284.989062 334.182685 
L 284.989062 362.538935 
Q 284.989062 364.538935 286.989062 364.538935 
z
" style="fill: #ffffff; opacity: 0.8; stroke: #cccccc; stroke-linejoin: miter"/>
    </g>
    <g id="text_26">
     <text style="font: 10px 'DejaVu Sans'; text-anchor: start" x="388.325781" y="343.781122" transform="rotate(-0 388.325781 343.781122)">Rating 1–5</text>
    </g>
    <g id="patch_31">
     <path d="M 288.989062 358.459247 
L 308.989062 358.459247 
L 308.989062 351.459247 
L 288.989062 351.459247 
z
" style="fill: #b94d4d"/>
    </g>
    <g id="text_27">
     <text style="font: 10px 'DejaVu Sans'; text-anchor: start" x="316.989062" y="358.459247" transform="rotate(-0 316.989062 358.459247)">1</text>
    </g>
    <g id="patch_32">
     <path d="M 343.351562 358.459247 
L 363.351562 358.459247 
L 363.351562 351.459247 
L 343.351562 351.459247 
z
" style="fill: #d98b53"/>
    </g>
    <g id="text_28">
     <text style="font: 10px 'DejaVu Sans'; text-anchor: start" x="371.351562" y="358.459247" transform="rotate(-0 371.351562 358.459247)">2</text>
    </g>
    <g id="patch_33">
     <path d="M 397.714062 358.459247 
L 417.714062 358.459247 
L 417.714062 351.459247 
L 397.714062 351.459247 
z
" style="fill: #c4cbd0"/>
    </g>
    <g id="text_29">
     <text style="font: 10px 'DejaVu Sans'; text-anchor: start" x="425.714062" y="358.459247" transform="rotate(-0 425.714062 358.459247)">3</text>
    </g>
    <g id="patch_34">
     <path d="M 452.076562 358.459247 
L 472.076562 358.459247 
L 472.076562 351.459247 
L 452.076562 351.459247 
z
" style="fill: #65a79e"/>
    </g>
    <g id="text_30">
     <text style="font: 10px 'DejaVu Sans'; text-anchor: start" x="480.076562" y="358.459247" transform="rotate(-0 480.076562 358.459247)">4</text>
    </g>
    <g id="patch_35">
     <path d="M 506.439062 358.459247 
L 526.439062 358.459247 
L 526.439062 351.459247 
L 506.439062 351.459247 
z
" style="fill: #16817a"/>
    </g>
    <g id="text_31">
     <text style="font: 10px 'DejaVu Sans'; text-anchor: start" x="534.439062" y="358.459247" transform="rotate(-0 534.439062 358.459247)">5</text>
    </g>
   </g>
  </g>
 </g>
 <defs>
  <clipPath id="p66cc56c38a">
   <rect x="135.895312" y="22.318125" width="558" height="260.568"/>
  </clipPath>
 </defs>
</svg>
